<svg width="40" height="41" viewBox="0 0 40 41" fill="none" xmlns="http://www.w3.org/2000/svg">
<path d="M11.25 36.2534C10.9185 36.2534 10.6005 36.1217 10.3661 35.8873C10.1317 35.6529 10 35.3349 10 35.0034V30.0034H8.125C6.63367 30.0018 5.20389 29.4086 4.14935 28.3541C3.09482 27.2995 2.50165 25.8698 2.5 24.3784V9.37842C2.50165 7.88708 3.09482 6.4573 4.14935 5.40277C5.20389 4.34824 6.63367 3.75507 8.125 3.75342H31.875C33.3663 3.75507 34.7961 4.34824 35.8506 5.40277C36.9052 6.4573 37.4983 7.88708 37.5 9.37842V24.3784C37.4983 25.8698 36.9052 27.2995 35.8506 28.3541C34.7961 29.4086 33.3663 30.0018 31.875 30.0034H19.1984L12.0508 35.9636C11.8258 36.1507 11.5426 36.2532 11.25 36.2534Z" fill="#323D3D"/>
</svg>
