<svg width="48" height="48" viewBox="0 0 48 48" fill="none" xmlns="http://www.w3.org/2000/svg">
<path d="M24 4.5C13.2478 4.5 4.5 13.2478 4.5 24C4.5 34.7522 13.2478 43.5 24 43.5C34.7522 43.5 43.5 34.7522 43.5 24C43.5 13.2478 34.7522 4.5 24 4.5ZM31.0603 28.9397C31.2055 29.0776 31.3215 29.2432 31.4017 29.4266C31.4819 29.6101 31.5245 29.8078 31.527 30.008C31.5296 30.2081 31.4921 30.4068 31.4166 30.5923C31.3412 30.7778 31.2294 30.9462 31.0878 31.0878C30.9462 31.2294 30.7778 31.3412 30.5923 31.4166C30.4068 31.4921 30.2081 31.5296 30.008 31.527C29.8078 31.5245 29.6101 31.4819 29.4266 31.4017C29.2432 31.3215 29.0776 31.2055 28.9397 31.0603L24 26.1216L19.0603 31.0603C18.7767 31.3297 18.3991 31.4777 18.008 31.4727C17.6168 31.4677 17.2431 31.3101 16.9665 31.0335C16.6899 30.7569 16.5323 30.3832 16.5273 29.992C16.5223 29.6009 16.6703 29.2233 16.9397 28.9397L21.8784 24L16.9397 19.0603C16.6703 18.7767 16.5223 18.3991 16.5273 18.008C16.5323 17.6168 16.6899 17.2431 16.9665 16.9665C17.2431 16.6899 17.6168 16.5323 18.008 16.5273C18.3991 16.5223 18.7767 16.6703 19.0603 16.9397L24 21.8784L28.9397 16.9397C29.2233 16.6703 29.6009 16.5223 29.992 16.5273C30.3832 16.5323 30.7569 16.6899 31.0335 16.9665C31.3101 17.2431 31.4677 17.6168 31.4727 18.008C31.4777 18.3991 31.3297 18.7767 31.0603 19.0603L26.1216 24L31.0603 28.9397Z" fill="#323D3D"/>
</svg>
