<svg width="32" height="33" viewBox="0 0 32 33" fill="none" xmlns="http://www.w3.org/2000/svg">
<path d="M26 4.00342H6C4.93949 4.00458 3.92275 4.42638 3.17285 5.17627C2.42296 5.92616 2.00116 6.94291 2 8.00342V24.0034C2.00116 25.0639 2.42296 26.0807 3.17285 26.8306C3.92275 27.5805 4.93949 28.0023 6 28.0034H26C27.0605 28.0023 28.0773 27.5805 28.8271 26.8306C29.577 26.0807 29.9988 25.0639 30 24.0034V8.00342C29.9988 6.94291 29.577 5.92616 28.8271 5.17627C28.0773 4.42638 27.0605 4.00458 26 4.00342ZM21 8.00342C21.5933 8.00342 22.1734 8.17937 22.6667 8.50901C23.1601 8.83865 23.5446 9.30719 23.7716 9.85537C23.9987 10.4035 24.0581 11.0067 23.9424 11.5887C23.8266 12.1706 23.5409 12.7052 23.1213 13.1247C22.7018 13.5443 22.1672 13.83 21.5853 13.9458C21.0033 14.0615 20.4001 14.0021 19.8519 13.7751C19.3038 13.548 18.8352 13.1635 18.5056 12.6701C18.1759 12.1768 18 11.5968 18 11.0034C18.0008 10.208 18.3172 9.44544 18.8796 8.88301C19.442 8.32058 20.2046 8.00425 21 8.00342ZM6 26.0034C5.46957 26.0034 4.96086 25.7927 4.58579 25.4176C4.21071 25.0426 4 24.5339 4 24.0034V19.7765L9.9275 14.5078C10.4994 14.0006 11.2432 13.7305 12.0073 13.7526C12.7714 13.7746 13.4983 14.0872 14.04 14.6265L18.0994 18.6772L10.7731 26.0034H6ZM28 24.0034C28 24.5339 27.7893 25.0426 27.4142 25.4176C27.0391 25.7927 26.5304 26.0034 26 26.0034H13.6019L21.1906 18.4147C21.7279 17.9577 22.4097 17.706 23.115 17.7042C23.8203 17.7024 24.5035 17.9505 25.0431 18.4047L28 20.8684V24.0034Z" fill="#323D3D"/>
</svg>
