<svg width="150" height="150" viewBox="0 0 150 150" fill="none" xmlns="http://www.w3.org/2000/svg">
<g id="Logo">
<path id="Vector" d="M59.1143 113C53.3568 102.598 56.4274 96.6297 60.8415 91.0118C65.6779 84.8604 66.9445 78.7757 66.9445 78.7757C66.9445 78.7757 70.7637 83.0767 69.2283 89.7948C75.9454 83.2934 77.2313 72.9244 76.2141 68.9569C91.414 78.1923 97.92 98.18 89.1685 113C135.747 90.1116 100.76 55.854 94.6574 51.9864C96.6917 55.8373 97.0755 62.3721 92.9685 65.5561C86.0211 42.6844 68.8445 38 68.8445 38C70.8788 49.8026 61.4749 62.7055 52.4164 72.341C52.0901 67.6399 51.7638 64.3892 48.9043 59.8882C48.2709 68.4401 40.7478 75.4083 38.7135 83.9602C35.969 95.5628 40.8054 104.048 59.1143 113Z" fill="#F2F1E6"/>
<circle id="Ellipse 7" cx="75" cy="75" r="67.5" stroke="#F2F1E6" stroke-width="15"/>
</g>
</svg>
