<svg width="64" height="64" viewBox="0 0 64 64" fill="none" xmlns="http://www.w3.org/2000/svg">
<path d="M32 6C17.6637 6 6 17.6637 6 32C6 46.3363 17.6637 58 32 58C46.3363 58 58 46.3363 58 32C58 17.6637 46.3363 6 32 6ZM32.25 18C34.03 18 35.7701 18.5278 37.2501 19.5168C38.7302 20.5057 39.8837 21.9113 40.5649 23.5558C41.2461 25.2004 41.4243 27.01 41.0771 28.7558C40.7298 30.5016 39.8726 32.1053 38.614 33.364C37.3553 34.6226 35.7516 35.4798 34.0058 35.8271C32.26 36.1743 30.4504 35.9961 28.8058 35.3149C27.1613 34.6337 25.7557 33.4802 24.7668 32.0001C23.7778 30.5201 23.25 28.78 23.25 27C23.25 24.6131 24.1982 22.3239 25.886 20.636C27.5739 18.9482 29.8631 18 32.25 18ZM32 54C28.9656 54.0013 25.9639 53.3732 23.1845 52.1554C20.4052 50.9376 17.9086 49.1567 15.8525 46.925C16.9575 41.2025 26.8825 40 32 40C37.1175 40 47.0425 41.2025 48.1475 46.9238C46.0917 49.1558 43.5952 50.9371 40.8158 52.1551C38.0364 53.3731 35.0346 54.0013 32 54Z" fill="#323D3D"/>
</svg>
