<svg width="40" height="40" viewBox="0 0 40 40" fill="none" xmlns="http://www.w3.org/2000/svg">
<g id="react-icons/io5/IoSearchSharp">
<path id="Vector" d="M36.25 33.4375L26.5563 23.7422C28.1184 21.5954 28.9588 19.0081 28.9563 16.3531C28.9563 9.40391 23.3023 3.75 16.3531 3.75C9.40391 3.75 3.75 9.40391 3.75 16.3531C3.75 23.3023 9.40391 28.9563 16.3531 28.9563C19.0081 28.9588 21.5954 28.1184 23.7422 26.5563L33.4375 36.25L36.25 33.4375ZM16.3531 24.9758C14.6475 24.9759 12.9801 24.4703 11.5619 23.5228C10.1437 22.5753 9.03826 21.2285 8.38548 19.6528C7.73269 18.077 7.56185 16.343 7.89456 14.6702C8.22728 12.9973 9.0486 11.4607 10.2547 10.2547C11.4607 9.0486 12.9973 8.22728 14.6702 7.89456C16.343 7.56185 18.077 7.73269 19.6528 8.38548C21.2285 9.03826 22.5753 10.1437 23.5228 11.5619C24.4703 12.9801 24.9759 14.6475 24.9758 16.3531C24.9731 18.6392 24.0638 20.8308 22.4473 22.4473C20.8308 24.0638 18.6392 24.9731 16.3531 24.9758Z" fill="#323D3D"/>
</g>
</svg>
