<svg width="64" height="64" viewBox="0 0 64 64" fill="none" xmlns="http://www.w3.org/2000/svg">
<path d="M32 22C30.0222 22 28.0888 22.5865 26.4443 23.6853C24.7998 24.7841 23.5181 26.3459 22.7612 28.1732C22.0043 30.0004 21.8063 32.0111 22.1922 33.9509C22.578 35.8907 23.5304 37.6725 24.9289 39.0711C26.3275 40.4696 28.1093 41.422 30.0491 41.8079C31.9889 42.1937 33.9996 41.9957 35.8269 41.2388C37.6541 40.4819 39.2159 39.2002 40.3147 37.5557C41.4135 35.9112 42 33.9778 42 32C41.9921 29.3503 40.936 26.8113 39.0623 24.9377C37.1887 23.064 34.6497 22.0079 32 22ZM53.59 32C53.5848 32.9344 53.5163 33.8674 53.385 34.7925L59.4713 39.5575C59.7363 39.7764 59.915 40.0824 59.9752 40.4208C60.0354 40.7593 59.9733 41.1081 59.8 41.405L54.0425 51.345C53.8675 51.6393 53.5943 51.8624 53.271 51.9751C52.9477 52.0878 52.5951 52.0829 52.275 51.9613L45.1188 49.0863C43.6286 50.2337 41.9979 51.186 40.2663 51.92L39.1963 59.5175C39.1364 59.8578 38.9602 60.1668 38.6978 60.3916C38.4353 60.6164 38.103 60.7431 37.7575 60.75H26.2425C25.9033 60.7434 25.5764 60.622 25.3151 60.4057C25.0538 60.1893 24.8735 59.8908 24.8038 59.5588L23.7338 51.9613C21.9974 51.2358 20.3655 50.282 18.8813 49.125L11.725 52C11.4051 52.1218 11.0525 52.1269 10.7293 52.0144C10.406 51.9019 10.1327 51.679 9.95752 51.385L4.20001 41.4463C4.02671 41.1494 3.96463 40.8005 4.02485 40.4621C4.08507 40.1236 4.26369 39.8176 4.52877 39.5988L10.615 34.8338C10.4852 33.8946 10.4167 32.948 10.41 32C10.4152 31.0656 10.4837 30.1326 10.615 29.2075L4.52877 24.4425C4.26369 24.2236 4.08507 23.9176 4.02485 23.5792C3.96463 23.2407 4.02671 22.8919 4.20001 22.595L9.95752 12.655C10.1325 12.3607 10.4057 12.1376 10.729 12.0249C11.0523 11.9122 11.405 11.9171 11.725 12.0387L18.8813 14.9137C20.3714 13.7663 22.0021 12.814 23.7338 12.08L24.8038 4.4825C24.8637 4.14219 25.0399 3.83323 25.3023 3.60843C25.5647 3.38363 25.897 3.25694 26.2425 3.25H37.7575C38.0967 3.2566 38.4236 3.37799 38.6849 3.59435C38.9463 3.8107 39.1265 4.10925 39.1963 4.44125L40.2663 12.0387C42.0049 12.7637 43.6389 13.7176 45.125 14.875L52.275 12C52.5949 11.8782 52.9475 11.8732 53.2708 11.9856C53.594 12.0981 53.8673 12.321 54.0425 12.615L59.8 22.555C59.9733 22.8519 60.0354 23.2007 59.9752 23.5392C59.915 23.8776 59.7363 24.1836 59.4713 24.4025L53.385 29.1675C53.5148 30.1062 53.5833 31.0524 53.59 32Z" fill="#323D3D"/>
</svg>
